<?xml version="1.0" standalone="no"?>
<!DOCTYPE svg PUBLIC "-//W3C//DTD SVG 20010904//EN"
 "http://www.w3.org/TR/2001/REC-SVG-20010904/DTD/svg10.dtd">
<svg version="1.0" xmlns="http://www.w3.org/2000/svg"
 width="1280.000000pt" height="654.000000pt" viewBox="0 0 1280.000000 654.000000"
 preserveAspectRatio="xMidYMid meet">

<g transform="translate(0.000000,654.000000) scale(0.100000,-0.100000)"
fill="#000000" stroke="none">
<path d="M8791 5406 c103 -100 202 -264 259 -428 13 -37 26 -65 30 -63 16 10
32 129 28 207 -5 99 -28 157 -89 223 -56 61 -175 115 -253 115 -29 0 -29 0 25
-54z"/>
<path d="M8725 5394 c10 -35 15 -98 15 -217 0 -148 2 -171 20 -204 26 -49 26
-67 1 -53 -11 5 -25 16 -33 23 -23 22 -127 69 -186 83 -146 35 -355 -1 -547
-94 l-60 -29 120 -5 c204 -9 432 -82 638 -206 42 -26 92 -56 110 -66 17 -11
67 -46 110 -79 43 -32 80 -57 82 -55 8 8 -37 165 -62 213 -27 56 -98 151 -121
164 -30 17 6 20 39 4 19 -10 63 -19 99 -21 72 -5 91 -16 121 -72 29 -56 22
-21 -25 117 -45 134 -139 338 -166 363 -3 3 -17 21 -30 40 -23 34 -86 101
-122 129 -17 12 -17 10 -3 -35z m-272 -371 c-7 -2 -21 -2 -30 0 -10 3 -4 5 12
5 17 0 24 -2 18 -5z"/>
<path d="M9504 4945 c-123 -30 -228 -112 -279 -220 -25 -54 -28 -71 -28 -165
0 -100 16 -204 33 -215 4 -3 18 28 30 68 24 79 87 220 126 280 66 102 82 122
142 182 35 36 69 65 73 65 5 0 9 5 9 10 0 13 -42 11 -106 -5z"/>
<path d="M9566 4873 c-61 -62 -166 -200 -166 -219 0 -4 -6 -15 -13 -23 -20
-23 -93 -214 -116 -301 -10 -41 -22 -103 -26 -138 -4 -34 -10 -64 -15 -67 -12
-7 -26 37 -29 90 -2 60 -29 216 -37 224 -4 3 -4 -16 0 -44 16 -107 22 -175 15
-175 -4 0 -13 10 -21 23 -40 60 -194 201 -303 277 -19 14 -46 33 -58 43 -12
10 -34 26 -49 35 -16 9 -28 20 -28 24 0 4 -6 8 -14 8 -7 0 -19 7 -26 15 -7 9
-20 13 -29 10 -8 -3 -12 -3 -8 1 11 12 -68 57 -198 113 -105 46 -129 53 -255
81 -146 31 -226 24 -151 -14 33 -18 141 -132 180 -191 14 -22 34 -49 43 -59
10 -11 49 -72 88 -137 80 -134 113 -170 187 -204 82 -39 138 -35 248 20 131
64 171 73 239 52 42 -14 64 -29 94 -64 49 -56 69 -116 83 -242 5 -53 12 -104
15 -113 6 -21 42 -24 50 -5 3 9 16 12 34 9 37 -5 40 17 8 68 -25 41 -58 144
-58 181 0 60 93 138 166 139 64 0 129 44 165 110 10 18 14 75 15 210 1 175 11
256 35 302 21 40 0 27 -65 -39z m-1366 -67 c0 -11 -19 -15 -25 -6 -3 5 1 10 9
10 9 0 16 -2 16 -4z m315 -86 c3 -5 2 -10 -4 -10 -5 0 -13 5 -16 10 -3 6 -2
10 4 10 5 0 13 -4 16 -10z"/>
<path d="M10720 4792 c0 -4 15 -7 33 -7 l32 0 0 -103 c0 -90 2 -102 18 -102
15 0 17 12 17 105 l0 105 30 0 c17 0 34 -7 40 -17 11 -17 11 -17 6 0 -3 10 -6
21 -6 23 0 2 -38 4 -85 4 -47 0 -85 -3 -85 -8z"/>
<path d="M10940 4690 c0 -131 18 -150 22 -22 3 74 5 83 14 62 54 -117 66 -141
70 -137 3 2 22 40 44 83 l39 79 0 -87 c1 -77 3 -88 19 -88 15 0 17 12 17 110
0 140 -14 145 -70 30 -21 -44 -42 -80 -45 -80 -4 0 -23 36 -43 80 -52 117 -67
110 -67 -30z"/>
<path d="M9131 4565 c0 -5 6 -32 14 -60 8 -29 14 -39 14 -25 -1 24 -27 106
-28 85z"/>
<path d="M1041 4316 c-58 -19 -126 -86 -140 -140 -20 -73 -20 -87 0 -140 27
-72 81 -120 222 -196 139 -75 187 -121 187 -178 0 -42 -39 -94 -79 -107 -43
-13 -129 -7 -168 14 -69 35 -135 123 -149 198 -3 18 -12 33 -18 33 -9 0 -11
-39 -10 -146 1 -80 4 -147 6 -150 3 -2 15 7 28 21 29 31 54 31 122 3 73 -30
185 -30 249 1 125 59 181 193 128 306 -30 64 -92 114 -229 185 -163 84 -203
135 -164 207 47 89 183 84 270 -9 35 -37 62 -85 67 -119 2 -13 9 -25 15 -27
14 -4 15 195 2 238 l-7 25 -11 -26 c-15 -37 -27 -39 -96 -11 -74 30 -165 37
-225 18z"/>
<path d="M8266 4293 c-10 -21 -63 -138 -117 -259 -192 -432 -209 -463 -262
-483 -57 -22 -27 -31 104 -31 100 0 130 3 127 13 -3 6 -20 13 -39 15 -19 2
-40 8 -46 14 -20 17 -15 79 12 136 l24 53 142 -3 141 -3 30 -74 c38 -96 35
-113 -19 -125 -86 -18 -39 -26 147 -26 187 0 225 7 164 30 -48 19 -52 25 -153
257 -73 169 -92 211 -152 341 -22 46 -39 86 -39 89 0 7 -40 93 -43 93 -2 0
-11 -17 -21 -37z m6 -366 l57 -132 -116 -3 c-64 -1 -118 -1 -120 2 -3 3 8 33
24 68 16 35 42 93 59 130 16 37 31 67 34 68 3 0 31 -60 62 -133z"/>
<path d="M6705 3988 c-81 -183 -157 -348 -168 -366 -26 -44 -57 -72 -79 -72
-10 0 -18 -7 -18 -15 0 -13 21 -15 131 -15 100 0 130 3 127 13 -3 6 -20 13
-39 15 -19 2 -40 8 -46 14 -20 16 -15 84 8 139 l21 49 142 0 142 0 33 -80 c18
-44 31 -88 29 -97 -2 -11 -18 -20 -46 -26 -90 -18 -38 -27 149 -27 144 0 190
3 187 12 -3 7 -18 16 -35 20 -34 9 -65 64 -169 309 -31 73 -61 140 -66 149 -5
8 -37 80 -72 160 -35 79 -67 145 -73 147 -5 2 -76 -146 -158 -329z m144 -62
c28 -66 51 -124 51 -128 0 -4 -54 -8 -119 -8 l-119 0 61 135 c33 75 64 132 68
128 3 -4 30 -62 58 -127z"/>
<path d="M1556 4298 c22 -6 46 -19 53 -30 9 -14 12 -89 11 -276 -1 -292 7
-336 66 -401 54 -60 121 -85 229 -84 100 0 153 16 211 60 88 66 104 141 104
484 0 190 1 196 23 216 12 11 36 25 52 31 24 8 3 11 -102 11 -73 1 -133 -1
-133 -4 0 -2 18 -9 40 -15 63 -17 65 -24 65 -305 -1 -265 -5 -300 -50 -361
-53 -71 -209 -81 -273 -18 -37 38 -42 77 -42 363 0 317 -1 315 80 330 31 6
-18 9 -165 9 -159 0 -200 -3 -169 -10z"/>
<path d="M2424 4295 c27 -7 56 -21 63 -31 10 -14 13 -90 13 -344 0 -370 1
-364 -75 -376 -94 -14 -26 -24 161 -24 193 0 235 8 155 30 -21 5 -42 17 -45
26 -3 9 -6 82 -6 164 0 164 8 185 52 129 13 -17 32 -40 43 -53 33 -39 50 -60
110 -139 62 -83 69 -117 26 -127 -14 -3 -26 -11 -29 -18 -3 -9 45 -12 203 -12
161 0 206 3 203 13 -3 6 -16 14 -29 17 -13 3 -35 12 -48 20 -22 14 -361 428
-361 441 0 13 324 263 356 274 18 6 37 14 40 18 4 4 -62 7 -147 6 -121 0 -148
-3 -124 -11 32 -11 65 -36 65 -49 0 -19 -65 -80 -201 -190 -82 -66 -151 -119
-154 -119 -3 0 -5 71 -5 159 0 172 0 171 59 198 21 9 -13 11 -174 12 -184 0
-196 -1 -151 -14z"/>
<path d="M3358 4298 c74 -16 73 -11 70 -392 -3 -372 1 -349 -70 -361 -21 -4
-40 -11 -44 -16 -3 -5 81 -9 205 -9 200 0 264 9 171 25 -68 12 -70 17 -70 196
l0 159 140 0 140 0 0 -159 c0 -179 -2 -184 -70 -196 -92 -16 -29 -25 165 -25
194 0 257 9 165 25 -73 12 -70 -2 -70 370 0 375 -2 366 75 384 28 6 -21 9
-170 9 -151 0 -199 -3 -171 -9 74 -17 76 -23 76 -196 l0 -153 -140 0 -140 0 0
153 c0 173 2 179 76 196 28 6 -21 9 -171 9 -157 0 -199 -3 -167 -10z"/>
<path d="M4279 4299 c85 -17 81 2 81 -380 0 -376 3 -362 -70 -374 -96 -16 -40
-25 159 -25 200 0 264 9 171 25 -73 12 -70 -2 -70 369 0 373 -2 363 72 382 36
10 9 12 -172 12 -148 0 -201 -3 -171 -9z"/>
<path d="M4765 4292 c45 -16 50 -20 58 -57 4 -22 7 -178 5 -346 -3 -327 -5
-339 -53 -339 -13 0 -30 -3 -39 -6 -47 -18 5 -24 207 -24 311 0 405 24 470
116 24 35 29 51 29 102 0 96 -33 139 -137 177 -68 25 -71 29 -27 44 90 32 138
98 129 178 -9 83 -73 145 -166 163 -30 5 -160 10 -290 10 -235 -1 -236 -1
-186 -18z m393 -49 c58 -43 79 -137 44 -203 -23 -44 -90 -80 -149 -80 l-43 0
0 156 0 156 60 -4 c39 -3 70 -11 88 -25z m-33 -343 c75 -17 135 -114 120 -194
-16 -82 -78 -136 -157 -136 -75 0 -78 7 -78 186 l0 154 38 0 c20 0 55 -5 77
-10z"/>
<path d="M5554 4299 c80 -19 76 -1 76 -380 0 -376 3 -362 -70 -374 -92 -16
-29 -25 165 -25 195 0 258 10 160 24 -29 5 -49 14 -55 26 -5 10 -10 89 -10
174 l0 156 140 0 140 0 0 -157 c-1 -110 -4 -163 -13 -174 -7 -9 -31 -20 -55
-24 -94 -16 -33 -25 163 -25 194 0 257 9 165 25 -73 12 -70 -2 -70 370 0 375
-2 366 75 384 28 6 -21 9 -170 9 -151 0 -199 -3 -171 -9 74 -17 76 -23 76
-196 l0 -153 -140 0 -140 0 0 149 c0 170 5 184 75 200 28 6 -21 9 -170 9 -151
0 -199 -3 -171 -9z"/>
<path d="M7155 4300 c3 -5 12 -10 19 -10 33 0 65 -60 201 -380 111 -262 177
-410 184 -410 3 0 40 75 81 168 41 92 93 208 116 257 22 50 61 135 85 190 42
94 85 152 134 182 16 10 -6 12 -115 11 -133 0 -134 0 -88 -15 97 -29 96 -35
-88 -431 -19 -40 -34 -77 -34 -83 0 -6 -5 -9 -12 -7 -18 6 -209 459 -206 488
3 21 11 27 53 37 44 10 27 11 -143 12 -127 1 -191 -2 -187 -9z"/>
<path d="M9800 3890 c-202 -13 -335 -35 -469 -79 -86 -29 -145 -60 -163 -86
-32 -44 22 -116 108 -144 115 -38 313 -74 495 -91 235 -21 621 -4 799 36 41 9
94 20 117 25 143 29 212 69 228 130 11 46 -66 101 -195 140 -195 58 -605 89
-920 69z m635 -75 c266 -30 398 -83 365 -145 -14 -26 -25 -25 -56 3 -27 25
-113 57 -204 77 -30 6 -82 18 -115 25 -33 8 -118 22 -190 31 -71 9 -137 21
-145 26 -19 11 182 1 345 -17z m-700 7 c-6 -5 -35 -14 -65 -22 -100 -24 -235
-94 -324 -167 -49 -41 -60 -41 -76 -3 -34 83 81 149 330 189 73 11 146 13 135
3z m75 -217 c85 -8 200 -20 255 -25 55 -6 120 -10 145 -10 80 0 79 -16 -1 -35
-100 -23 -322 -24 -444 -1 -135 25 -275 70 -275 88 0 11 52 8 320 -17z"/>
<path d="M6743 3442 l7 -39 -103 -6 c-233 -13 -397 -132 -473 -343 -28 -79
-31 -253 -5 -346 41 -150 132 -259 265 -318 l41 -19 -87 0 c-49 -1 -88 -4 -88
-9 0 -4 48 -15 108 -25 139 -22 381 -23 506 -1 134 24 145 32 46 34 l-85 1 44
20 c55 25 141 87 141 103 0 6 -23 36 -50 65 -28 30 -49 60 -46 66 2 7 7 38 10
71 l7 59 -16 -34 c-8 -18 -15 -40 -15 -48 0 -8 -22 -36 -49 -62 -118 -115
-327 -118 -456 -7 -27 22 -74 50 -104 61 -89 32 -105 99 -36 146 32 22 33 26
37 99 7 133 77 236 191 279 32 11 62 21 67 21 6 0 10 -16 10 -36 0 -36 13 -68
37 -92 19 -20 24 -11 14 25 -14 49 -3 77 60 144 33 35 63 78 68 95 11 41 -6
107 -32 124 -19 11 -20 10 -14 -28z"/>
<path d="M9087 3454 c-8 -8 37 -135 68 -190 122 -218 343 -434 550 -537 187
-93 369 -99 635 -21 58 17 201 88 252 126 66 49 208 196 253 263 83 121 181
342 161 362 -4 4 -28 0 -54 -9 -83 -30 -314 -86 -417 -102 -55 -8 -138 -21
-185 -28 -55 -8 -183 -12 -365 -12 -235 1 -301 5 -410 23 -208 34 -229 38
-255 49 -14 6 -59 20 -100 32 -41 13 -87 29 -101 36 -15 7 -29 11 -32 8z
m1847 -171 c-72 -124 -134 -203 -242 -310 -83 -82 -277 -222 -290 -209 -4 4 1
12 11 18 10 5 33 22 50 37 18 14 50 40 72 56 89 66 255 248 345 380 45 65 74
98 78 87 2 -6 -9 -33 -24 -59z"/>
<path d="M6840 3374 c0 -38 -19 -77 -58 -118 -57 -61 -65 -97 -31 -140 27 -34
40 -33 28 2 -7 19 -6 38 1 56 8 22 14 26 33 20 35 -11 72 -31 86 -48 8 -9 19
-16 25 -16 12 0 126 107 126 119 0 17 -59 62 -118 90 -35 16 -70 38 -77 48
-13 17 -14 16 -15 -13z"/>
<path d="M7226 3167 c-36 -36 -64 -124 -85 -267 -12 -84 -24 -137 -35 -149
-20 -22 -21 -47 -2 -54 8 -3 20 -25 26 -49 24 -90 73 -204 98 -230 18 -20 36
-28 58 -28 24 0 39 8 54 28 21 26 22 33 16 159 -4 74 -3 134 2 137 5 3 34 9
65 14 l57 9 0 -51 c2 -236 76 -375 167 -311 18 13 22 28 28 112 3 54 22 221
42 371 39 296 38 315 -14 328 -67 17 -106 -35 -165 -221 -22 -71 -43 -133 -47
-136 -3 -4 -37 -9 -74 -13 l-69 -7 4 171 c3 170 3 172 -21 191 -32 26 -77 24
-105 -4z"/>
<path d="M8476 3147 c-32 -34 -68 -128 -85 -223 -11 -56 -9 -342 3 -389 12
-51 56 -134 83 -155 33 -26 63 -25 92 1 25 24 25 32 -3 154 -27 118 -18 248
30 437 31 123 31 152 -1 183 -36 37 -80 33 -119 -8z"/>
<path d="M8020 3163 c-42 -16 -117 -84 -152 -137 -61 -95 -89 -198 -95 -347
-10 -227 14 -320 82 -327 59 -6 70 15 70 125 l0 98 45 7 c25 3 68 7 97 7 l52
1 6 -47 c17 -144 37 -183 91 -183 64 0 85 98 80 374 -3 167 -7 212 -24 264
-37 115 -100 172 -187 171 -27 0 -57 -3 -65 -6z m81 -240 c7 -21 13 -85 13
-143 l1 -105 -87 -3 -88 -3 0 48 c0 58 20 136 50 199 37 75 87 78 111 7z"/>
<path d="M6560 2886 c-62 -17 -80 -26 -80 -41 0 -21 26 -36 87 -50 136 -33
343 -3 343 50 0 44 -234 72 -350 41z"/>
<path d="M6313 2785 c-16 -18 -17 -57 -1 -73 7 -7 22 -12 34 -12 22 0 22 0 6
50 -18 54 -21 56 -39 35z"/>
<path d="M6430 2708 c0 -19 71 -98 88 -98 6 0 1 10 -11 23 -12 13 -34 39 -49
58 -19 24 -28 29 -28 17z"/>
</g>
</svg>
